<?xml version="1.0" standalone="no"?><!DOCTYPE svg PUBLIC "-//W3C//DTD SVG 1.1//EN" "http://www.w3.org/Graphics/SVG/1.1/DTD/svg11.dtd"><!-- what did i tell you about teenage coder? he's canadian! --><svg width="310px" height="240px" version="1.1" xmlns="http://www.w3.org/2000/svg" xmlns:xlink="http://www.w3.org/1999/xlink" xml:space="preserve" style="fill-rule:evenodd;clip-rule:evenodd;stroke-linejoin:round;stroke-miterlimit:1.41421;"><g><path d="M45.8267,134.133c-2.62667,-4.41333 1.46667,-10.2133 6.10667,-10.8667c2.8,0.453333 7.31103,3.57327 7.49769,2.89327l2.39564,-1.83993c-1.26667,5.94667 -2.52,11.96 -3.6,17.9467c-4.73333,-1.48 -9.86667,-3.58667 -12.4,-8.13333ZM111.733,15.6267c1.08,-3.82667 1.37333,-8.24 4.26667,-11.28c2.26667,-0.64 3.88,0.84 4.6,2.86667c4.97333,12.52 8.28,25.6667 10.1333,39.0133c3.89333,-9.84 6.29333,-20.16 9.42667,-30.24c0.973333,-2.46667 1.6,-6.61333 5.2,-5.81333c1.49333,1.53333 1.52,3.76 1.98667,5.72c2.4,-2.64 4.49333,-9.44 8.93333,-6.8c2.14667,5.34667 1.62667,11.36 2.33333,17.0133c3.36,-2.09333 6.30667,-5.97333 10.5333,-5.92c0.573333,0.546667 1.69333,1.65333 2.26667,2.2c-4.61333,11.2933 -9.53333,22.4667 -14.76,33.4933c10.7867,-2.10667 21.5733,3.09333 29.8933,9.6c15.76,12.7067 25.4,31.2133 32.7733,49.6933c4.62667,12.4 6.78667,25.52 9.66667,38.3867c14.2933,1.70667 26.5067,-7.33333 37.8267,-14.68c4.88,-3.13333 9.88,-7 15.9467,-7.12c8.08,0.293333 13.56,8.64 13.1333,16.2133c-0.16,10.6667 -7.38667,19.6667 -15.5733,25.76c-14.1733,10.44 -32.64,13.2267 -49.8133,11.24c-0.306667,9.05333 0.813333,18.5467 -2.37333,27.2c-0.893333,3.04 -4.90667,6.21333 -7.58667,3.12c-3.82667,-4.92 -6.18667,-10.8 -8.94667,-16.3467c-1.48,9.36 -1.85333,19.2 -6.26667,27.7733c-1.77333,3.42667 -5.06667,7.25333 -9.37333,6.28c-4.37333,-1.17333 -7,-5.33333 -9.45333,-8.82667c-5.97333,-9.76 -9.69333,-20.7333 -12.6933,-31.72c-10.08,0.826667 -20.2133,0.893333 -30.32,0.466667c-0.4,5.05333 -1.8,9.97333 -2.93333,14.8933c-1.02667,3.78667 -2.86667,8.38667 -7.14667,9.32c-4.41333,0.84 -8.01333,-2.68 -9.88,-6.26667c-3.16,-6.52 -4.57333,-13.8133 -4.68,-21.0267c-2.37333,-0.546667 -4.72,-1.16 -7.09333,-1.72c0.84,9.89333 -1.90667,19.7467 -4.88,29.12c-1.82667,5.65333 -4.66667,11.16 -9.42667,14.8933c-3.81166,1.47402 -8.32737,2.03231 -13.5067,-2.6c-2.38667,-2.68 -3.97333,-5.96 -5.53333,-9.16c-5.21333,-11.48 -9.56,-23.3733 -12.4533,-35.64c-7.88,1.49333 -15.7067,-1.14667 -23.0667,-3.70667c-13.6267,-4.96 -25.4,-15.36 -31.12,-28.7867c-4.74667,-11.1333 -6.13333,-24.4133 -0.76,-35.5867c7.62667,-16.5467 33.2533,-21.8933 45.84,-8.18667c4.10667,4.22667 4.04,10.4133 4.97333,15.8533c1.53333,-14.4267 7.37333,-28.2 13.6267,-41.2533c-6.42667,-0.826667 -13.1733,-0.893333 -19.24,-3.32c-3.21333,-2.38667 -0.04,-6.44 0.946667,-9.16c-1.84,-1 -3.6,-2.16 -4.82667,-3.88c2.12,-3.18667 5.73333,-4.65333 8.97333,-6.4c-1.38667,-3.6 -3.46667,-7.06667 -3.68,-11c-0.253333,-2.56 2.69333,-4.29333 4.93333,-3.25333c13.0133,3.98667 24.9467,10.7067 36.52,17.76c-5.42667,-13.2533 -11.2133,-26.3867 -15.68,-39.9867c-0.92,-3.48 -3.2,-9.61333 1.86667,-10.88c4.56,1.06667 8.64,3.50667 12.56,5.98667c1.05333,-4.05333 0.506667,-9.38667 4.77333,-11.68c3.46667,2.29333 6.24,5.42667 9.13333,8.37333Z" style="fill:#000;"/><g transform="matrix(1.33333,0,0,1.33333,0,1.89478e-14)"><path d="M84.09,16.12c3.43,-0.54 2.56,-5.29 4.11,-7.71c2.81,7.66 4.98,15.57 6.19,23.65c0.7,3.13 0.63,6.95 3.64,8.92c2.55,-1.95 3.06,-5.21 4.09,-8.04c1.96,-5.78 3.76,-11.62 5.12,-17.57c0.92,0.6 1.84,1.2 2.76,1.8c1.94,-1.84 3.61,-3.94 5.09,-6.16c0.48,3.74 0.02,7.78 1.64,11.28c2.36,2.61 5.1,-1.24 7.16,-2.32c-3.91,8.18 -6.92,16.84 -11.54,24.64c-14.2,9.41 -32.27,12.92 -48.89,9c-5.46,-1.07 -10.58,-3.28 -15.79,-5.14c3.73,-3.28 -0.26,-7.35 -1.4,-10.84c7.36,2.57 14.54,5.75 21.16,9.9c2.43,1.42 4.79,3.13 7.58,3.8c1.8,0.63 3.44,-1.5 2.67,-3.16c-4.15,-11.73 -10.04,-22.88 -13.02,-35.02c3.36,1.45 6.5,3.33 9.5,5.41c3.11,-1.8 2.46,-5.82 3.35,-8.82c2.14,2.17 3.98,4.73 6.58,6.38Z" style="fill:#a51711;fill-rule:nonzero;"/></g><g transform="matrix(1.33333,0,0,1.33333,0,1.89478e-14)"><path d="M113.03,51.2c1.68,-2.27 1.74,-7.31 5.4,-6.84c-0.99,2.36 -1.81,4.8 -3.07,7.04c-0.58,-0.05 -1.75,-0.15 -2.33,-0.2Z" style="fill:#938160;fill-rule:nonzero;"/></g><g transform="matrix(1.33333,0,0,1.33333,0,1.89478e-14)"><path d="M63.46,53.61c16.62,3.92 34.69,0.41 48.89,-9c-0.74,2.75 -3.01,5.32 -2.39,8.28c4.03,2.59 9.27,2.06 13.73,3.65c-6.68,3.78 -14.32,5.19 -21.47,7.75c-1.56,0.35 -2.38,2.06 -1.77,3.52c1.61,5.87 4.11,11.62 3.99,17.82c-1.92,-0.18 -3.82,-0.4 -5.71,-0.73c0,-6.92 0.4,-14.9 -4.51,-20.43c0.12,1.56 0.26,3.11 0.43,4.67c-7.94,1.35 -16,1.19 -24.02,1.09c1.49,-2.05 3.3,-3.96 4.27,-6.34c0.52,-1.68 -0.84,-3.23 -2.51,-3.31c-9.28,-1.37 -18.76,-1.2 -27.95,-3.22c1.6,-2.66 2.46,-5.74 0.24,-8.34c0.98,-0.34 1.98,-0.52 2.99,-0.55c5.21,1.86 10.33,4.07 15.79,5.14Z" style="fill:#77110d;fill-rule:nonzero;"/></g><g transform="matrix(1.33333,0,0,1.33333,0,1.89478e-14)"><path d="M117.6,51.93c1,-2.51 2.06,-5 3.17,-7.47c14.96,1.34 25.49,13.79 32.67,25.86c-6.76,0.21 -13.52,0.63 -20.25,1.29c-2.26,0.2 -4.37,1.07 -6.43,1.96c-2.51,-3.81 -5.17,-7.54 -7.46,-11.51c2.77,-1.17 5.69,-2.05 8.29,-3.6c1.58,-0.78 1.24,-3.01 -0.23,-3.7c-2.98,-1.7 -6.47,-2.09 -9.76,-2.83Z" style="fill:#4b4336;fill-rule:nonzero;"/></g><g transform="matrix(1.33333,0,0,1.33333,0,1.89478e-14)"><path d="M58.56,65.61c0.65,-1.46 2.21,-2.1 3.41,-3.02c1.94,0.25 3.9,0.44 5.85,0.65c-2.01,5.42 -3.95,10.9 -4.97,16.62c-3.51,0.32 -7.02,0.59 -10.53,0.82c1.86,-5.11 3.8,-10.2 6.24,-15.07Z" style="fill:#483e2a;fill-rule:nonzero;"/></g><g transform="matrix(1.33333,0,0,1.33333,0,1.89478e-14)"><path d="M70.43,63.29c1.74,0.34 0.1,3.69 -1.34,3.23c-0.63,-1.13 0.23,-2.74 1.34,-3.23Z" style="fill:#312e29;fill-rule:nonzero;"/></g><g transform="matrix(1.33333,0,0,1.33333,0,1.89478e-14)"><path d="M103.53,67.09c4.69,-1.1 9.29,-3.23 13.96,-3.93c2.43,4.34 5.35,8.35 8.04,12.53c-3.62,8.78 -5.93,18.04 -8.91,27.05c-11.53,0.71 -23.12,1.24 -34.52,3.17c-3.56,-3.53 -6.77,-7.46 -9.3,-11.79c-1.35,-6.92 -0.59,-14.07 2.04,-20.6c6.78,0.01 13.56,-0.2 20.29,-1.13c0.45,4.15 0.24,8.33 0.42,12.5c0.72,3.19 4.67,3.69 7.4,3.89c2.76,0.5 4.96,-2.18 4.65,-4.81c-0.23,-5.83 -2.41,-11.35 -4.07,-16.88Z" style="fill:#6f685c;fill-rule:nonzero;"/></g><g transform="matrix(1.33333,0,0,1.33333,0,1.89478e-14)"><path d="M134.2,73.68c5.96,-0.4 13.8586,-1.31257 19.8286,-1.34257c0.318147,0.0544369 6.98139,13.0726 8.97139,19.5526c2.02,6.45 3.16,13.12 4.8,19.67c-6.38,5.31 -14.84,6.57 -22.37,9.53c-2.44,0.34 -4.92,0.07 -7.38,0.02c-6.38,-6.06 -12.94,-11.94 -19.54,-17.76c3.4,-8.57 5.23,-17.67 8.73,-26.19c1.03,-2.82 4.41,-3.13 6.96,-3.48Z" style="fill:#938160;fill-rule:nonzero;"/></g><g transform="matrix(1.33333,0,0,1.33333,0,1.89478e-14)"><path d="M66.28,83.76c-2.22,-3.44 -0.28,-7.55 0.52,-11.13c2.62,0.66 5.33,0.91 8.04,0.89c-2.63,6.53 -3.39,13.68 -2.04,20.6c-2.44,-3.27 -4.49,-6.82 -6.52,-10.36Z" style="fill:#504b43;fill-rule:nonzero;"/></g><g transform="matrix(1.33333,0,0,1.33333,0,1.89478e-14)"><path d="M12.94,85.99c5.47,-7.12 16.27,-9.38 24.15,-5.16c4.18,2.3 6,7.02 7.26,11.35c-1.6,-1.19 -3.1,-3.02 -5.31,-2.87c-2.48,-0.16 -4.35,1.67 -6.24,2.99c-1.6,-0.77 -3.45,-1.93 -5.18,-0.74c-4.12,2.5 -4.8,8.18 -3.71,12.5c2.16,8.89 10.34,15.19 19.06,16.96c0.09,-0.51 0.29,-1.52 0.39,-2.02c0.84,3.01 2.29,5.81 4.52,8.03c0.28,3.29 0.63,6.59 1.3,9.83c-7.95,-1.86 -16.28,-3.12 -23.24,-7.69c-10.68,-6.41 -17.56,-18.7 -17.06,-31.18c0.32,-4.24 1.38,-8.61 4.06,-12Z" style="fill:#40593c;fill-rule:nonzero;"/></g><g transform="matrix(1.33333,0,0,1.33333,0,1.89478e-14)"><path d="M51.8,82.89c3.73,-0.27 7.45,-0.59 11.18,-0.84c4.65,8.76 9.8,17.45 16.83,24.53c-2.97,5.09 -5.49,10.61 -6.34,16.49c-0.6,5.76 4.78,9.46 7.49,13.9c-9.47,-2.63 -18.78,-5.97 -27.54,-10.45c-2.75,-1.44 -5.63,-3.42 -6.44,-6.61c-1.24,-5.05 -0.34,-10.29 0.35,-15.35c1.18,-7.28 2.42,-14.58 4.47,-21.67Z" style="fill:#6a5d46;fill-rule:nonzero;"/></g><g transform="matrix(1.33333,0,0,1.33333,0,1.89478e-14)"><path d="M27.62,91.56c1.73,-1.19 3.58,-0.03 5.18,0.74c-1.84,2.71 -3.14,6.27 -1.46,9.4c2.09,4.65 7.37,6.69 12.21,6.56c-0.43,3.57 -0.24,7.16 -0.19,10.74c-0.1,0.5 -0.3,1.51 -0.39,2.02c-8.72,-1.77 -16.9,-8.07 -19.06,-16.96c-1.09,-4.32 -0.41,-10 3.71,-12.5Z" style="fill:#587b53;fill-rule:nonzero;"/></g><g transform="matrix(1.33333,0,0,1.33333,0,1.89478e-14)"><path d="M202.98,106.09c3.01,-1.86 6.16,-4.42 9.93,-3.9c2.75,0.34 4.18,2.97 5.44,5.12c-0.94,1.47 -1.87,2.94 -2.78,4.43c-0.37,-0.58 -0.75,-1.14 -1.12,-1.71c-1.15,-1.73 -3.06,-2.83 -5.17,-2.64c-2.81,1.68 -4,6.58 -1.15,8.81c0.96,0.47 1.93,0.93 2.92,1.37c-8.48,6.98 -20.46,9.52 -30.98,6.37c-2.17,-0.49 -3.26,-2.5 -4.38,-4.2c1.18,-0.48 2.35,-0.99 3.54,-1.46c8.77,-2.17 16.38,-7.19 23.75,-12.19Z" style="fill:#587b53;fill-rule:nonzero;"/></g><g transform="matrix(1.33333,0,0,1.33333,0,1.89478e-14)"><path d="M102.99,105.78c4.6,-0.3 9.23,-0.89 13.84,-0.51c6.75,4.91 12.66,10.96 18.76,16.66c-14.72,1.26 -29.71,-1.37 -43.2,-7.37c-3.6,-1.6 -6.8,-3.92 -9.88,-6.33c6.7,-1.69 13.65,-1.67 20.48,-2.45Z" style="fill:#4b4336;fill-rule:nonzero;"/></g><g transform="matrix(1.33333,0,0,1.33333,0,1.89478e-14)"><path d="M209.28,107.39c2.11,-0.19 4.02,0.91 5.17,2.64c0.66,3.69 -2.45,7.42 -6.32,6.17c-2.85,-2.23 -1.66,-7.13 1.15,-8.81Z" style="fill:#010101;fill-rule:nonzero;"/></g><g transform="matrix(1.33333,0,0,1.33333,0,1.89478e-14)"><path d="M82.04,107.87l0.47,0.36c3.08,2.41 6.28,4.73 9.88,6.33c13.49,6 28.48,8.63 43.2,7.37l0.52,-0.03c3.24,5.82 0.37,12.62 0.02,18.83c-17.24,1.4 -35.07,2.08 -51.81,-2.96c-3.05,-4.1 -6.85,-7.95 -8.69,-12.76c0.31,-6.11 2.68,-12.29 6.41,-17.14Z" style="fill:#363127;fill-rule:nonzero;"/></g><g transform="matrix(1.33333,0,0,1.33333,0,1.89478e-14)"><path d="M215.57,111.74c0.91,-1.49 1.84,-2.96 2.78,-4.43c1.83,7.88 -3.24,15.24 -9.23,19.81c-10.19,8.08 -23.85,9.73 -36.43,8.44c1.54,-6.19 0.1,-12.55 -0.61,-18.75c2.35,0.64 4.74,1.12 7.15,1.47c-1.19,0.47 -2.36,0.98 -3.54,1.46c1.12,1.7 2.21,3.71 4.38,4.2c10.52,3.15 22.5,0.61 30.98,-6.37c-0.99,-0.44 -1.96,-0.9 -2.92,-1.37c3.87,1.25 6.98,-2.48 6.32,-6.17c0.37,0.57 0.75,1.13 1.12,1.71Z" style="fill:#40593c;fill-rule:nonzero;"/></g><g transform="matrix(1.33333,0,0,1.33333,0,1.89478e-14)"><path d="M167.8,111.56c0.5,3.03 1.08,6.05 1.69,9.07c-8.03,-0.12 -16.04,1.07 -24.06,0.46c7.53,-2.96 15.99,-4.22 22.37,-9.53Z" style="fill:#6a5d46;fill-rule:nonzero;"/></g><g transform="matrix(1.33333,0,0,1.33333,0,1.89478e-14)"><path d="M139.64,123.33c9.86,0.6 19.72,-0.46 29.57,-0.54c1.37,3.01 0.99,6.81 0.89,10.12c-2.06,3.55 -6.74,4.15 -10.39,5.18c-0.35,-1.21 -0.7,-2.41 -1.05,-3.61c-0.49,1.33 -0.97,2.67 -1.45,4.01c-6.23,1.14 -12.55,1.58 -18.86,2.07c1.04,-5.68 1.82,-11.45 1.29,-17.23Z" style="fill:#483e2a;fill-rule:nonzero;"/></g><g transform="matrix(1.33333,0,0,1.33333,0,1.89478e-14)"><path d="M49.11,127.69c10.17,5.91 21.4,9.74 32.71,12.83c-0.63,2.6 -1.15,5.24 -1.5,7.9c-3.33,-3.87 -7.66,-8.07 -13.24,-7.27c-5.54,0.37 -9.17,5.39 -10.07,10.49c-3.36,-7.71 -5.82,-15.8 -7.9,-23.95Z" style="fill:#40593c;fill-rule:nonzero;"/></g><g transform="matrix(1.33333,0,0,1.33333,0,1.89478e-14)"><path d="M159.48,141.55c3.68,-0.95 7.28,-2.15 10.74,-3.71c-0.59,4.76 -0.38,9.58 -0.82,14.35c-0.05,-2.45 -0.26,-4.9 -0.43,-7.34c-3.42,-0.43 -6.63,0.75 -9.4,2.67l-0.47,0.28c0.12,-2.09 0.24,-4.17 0.38,-6.25Z" style="fill:#273424;fill-rule:nonzero;"/></g><g transform="matrix(1.33333,0,0,1.33333,0,1.89478e-14)"><path d="M57.01,151.64c0.9,-5.1 4.53,-10.12 10.07,-10.49c5.58,-0.8 9.91,3.4 13.24,7.27c-0.79,6.16 -2.39,12.27 -5,17.92c-1.47,2.76 -3.73,6.29 -7.36,5.75c-2.72,-1.21 -4.11,-4.05 -5.45,-6.53c-2.18,-4.49 -4.21,-9.09 -5.5,-13.92Z" style="fill:#587b53;fill-rule:nonzero;"/></g><g transform="matrix(1.33333,0,0,1.33333,0,1.89478e-14)"><path d="M131.71,144.29c8.21,-0.68 16.44,-1.19 24.62,-2.3c-0.72,5 -1.18,10.04 -1.9,15.04c0.04,-2.65 0.41,-5.75 -1.58,-7.85c-2.28,-2.85 -6.6,-4.09 -9.87,-2.25c-3.16,1.79 -4.55,5.36 -6.22,8.38c-1.81,-3.61 -3.45,-7.31 -5.05,-11.02Z" style="fill:#40593c;fill-rule:nonzero;"/></g><g transform="matrix(1.33333,0,0,1.33333,0,1.89478e-14)"><path d="M90.48,142.55c4.83,1.1 9.75,1.71 14.68,2.15c-0.62,1.95 -1.21,3.91 -1.74,5.89c-1.32,-1.59 -2.32,-3.87 -4.54,-4.33c-2.68,-0.1 -4.51,2.29 -6.54,3.69c-0.73,-2.44 -1.35,-4.91 -1.86,-7.4Z" style="fill:#273324;fill-rule:nonzero;"/></g><g transform="matrix(1.33333,0,0,1.33333,0,1.89478e-14)"><path d="M159.57,147.52c2.77,-1.92 5.98,-3.1 9.4,-2.67c0.17,2.44 0.38,4.89 0.43,7.34c-0.19,2.51 -0.64,5.13 -2.26,7.15c-2.82,-3.75 -5.46,-7.63 -7.57,-11.82Z" style="fill:#354832;fill-rule:nonzero;"/></g><g transform="matrix(1.33333,0,0,1.33333,0,1.89478e-14)"><path d="M92.34,149.95c2.03,-1.4 3.86,-3.79 6.54,-3.69c2.22,0.46 3.22,2.74 4.54,4.33c-1.06,3.12 -0.89,7.81 -4.39,9.29c-4.05,-1.55 -5.09,-6.37 -6.69,-9.93Z" style="fill:#354832;fill-rule:nonzero;"/></g><g transform="matrix(1.33333,0,0,1.33333,0,1.89478e-14)"><path d="M142.98,146.93c3.27,-1.84 7.59,-0.6 9.87,2.25c1.99,2.1 1.62,5.2 1.58,7.85c-0.93,4.89 -1.57,10.48 -5.3,14.14c-1.08,1.16 -2.64,0.04 -3.46,-0.82c-4.08,-4.26 -6.27,-9.86 -8.91,-15.04c1.67,-3.02 3.06,-6.59 6.22,-8.38Z" style="fill:#587b53;fill-rule:nonzero;"/></g></g></svg>